


Format                           : AVI
Format/Info                      : Audio Video Interleave
File size                        : 1.32 GiB
Duration                         : 1h 22mn
Overall bit rate                 : 2 275 Kbps
Writing library                  : VirtualDub build 32839/release

Video
ID                               : 0
Format                           : MPEG-4 Visual
Format profile                   : Advanced Simple@L5
Format settings, BVOP            : Yes
Format settings, QPel            : No
Format settings, GMC             : No warppoints
Format settings, Matrix          : Custom
Codec ID                         : XVID
Codec ID/Hint                    : XviD
Duration                         : 1h 22mn
Bit rate                         : 2 138 Kbps
Width                            : 720 pixels
Height                           : 304 pixels
Display aspect ratio             : 2.35:1
Frame rate                       : 25.000 fps
Color space                      : YUV
Chroma subsampling               : 4:2:0
Bit depth                        : 8 bits
Scan type                        : Progressive
Bits/(Pixel*Frame)               : 0.391
Stream size                      : 1.24 GiB (94%)
Writing library                  : XviD 1.2.1 (UTC 2008-12-04)

Audio
ID                               : 1
Format                           : MPEG Audio
Format version                   : Version 1
Format profile                   : Layer 3
Mode                             : Joint stereo
Mode extension                   : MS Stereo
Codec ID                         : 55
Codec ID/Hint                    : MP3
Duration                         : 1h 22mn
Bit rate mode                    : Constant
Bit rate                         : 128 Kbps
Channel(s)                       : 2 channels
Sampling rate                    : 44.1 KHz
Stream size                      : 75.9 MiB (6%)
Alignment                        : Split accross interleaves
Interleave, duration             : 40 ms (1.00 video frame)
Interleave, preload duration     : 500 ms
Writing library                  : LAME3.98r
Encoding settings                : -m j -V 4 -q 2 -lowpass 17 -b 128



 
http://www.imdb.com/title/tt1436562/







Users: 7.5/10 (1,123 votes) 20 reviews | Critics: 18 reviews Metascore: 70/100 (based on 4 reviews from Metacritic.com)

When Blu, a domesticated macaw from small-town Minnesota, meets the fiercely independent Jewel, he takes off on an adventure to Rio de Janeiro with this bird of his dreams.
Director:
Carlos Saldanha
Writers:
Carlos Saldanha (story), Don Rhymer (screenplay)
Stars:
Jesse Eisenberg, Anne Hathaway and George Lopez 





 
http://img196.imageshack.us/img196/333/vlcsnap2011041304h06m36.png
 
http://img97.imageshack.us/img97/894/vlcsnap2011041304h04m29.png
 
http://img862.imageshack.us/img862/2695/vlcsnap2011041304h01m54.png



SOURCES:



VIDEO:Rio.D.2011.TS ............ Thanks

AUDIO:Rio ....IMAGiNE ..............Thanks


Just a few filters slightest smoother ,levels filter and slight rgb colours .......Enjoy !



Greetz to Imagine ,Flawl3ss,DiLLoN,BDK,NOiR,TOXiCiNK,THC,Ez,Rx,Boobyblue